<svg version="1.0" xmlns="http://www.w3.org/2000/svg"
 width="179.000000pt" height="56.000000pt" viewBox="0 0 179.000000 56.000000"
 preserveAspectRatio="xMidYMid meet">

<g transform="translate(0.000000,56.000000) scale(0.100000,-0.100000)"
fill="#000000" stroke="none">
<path d="M327 493 c-16 -25 -26 -47 -24 -49 2 -2 14 14 26 36 12 22 24 40 26
40 2 0 15 -20 29 -45 15 -25 29 -45 32 -45 3 0 -5 17 -17 38 -47 77 -42 75
-72 25z"/>
<path d="M510 440 c-8 -11 -20 -20 -27 -20 -7 0 -13 -4 -13 -9 0 -5 -8 -11
-17 -14 -10 -2 -25 -8 -34 -11 -12 -5 -15 -1 -15 16 1 14 -6 24 -16 26 -13 2
-18 -3 -18 -17 0 -12 -6 -21 -15 -21 -8 0 -15 9 -15 20 0 14 -7 20 -21 20 -15
0 -19 -5 -17 -22 2 -15 -3 -24 -14 -26 -11 -2 -18 3 -18 12 0 18 -25 22 -35 6
-4 -6 -2 -17 4 -24 8 -10 7 -17 -5 -27 -13 -11 -17 -10 -26 5 -8 14 -13 15
-24 5 -13 -10 -12 -14 2 -30 20 -22 9 -46 -13 -28 -12 10 -16 10 -24 -2 -13
-21 -11 -27 11 -34 28 -9 25 -35 -4 -35 -19 0 -23 -4 -19 -19 3 -13 11 -17 24
-14 13 4 19 0 19 -11 0 -9 -7 -16 -15 -16 -17 0 -20 -26 -5 -35 6 -4 17 -2 24
4 10 8 16 8 25 -3 10 -11 8 -16 -5 -24 -15 -9 -16 -12 -5 -26 12 -14 16 -15
30 -3 24 21 44 11 28 -14 -10 -16 -24 -19 -94 -19 -46 0 -83 2 -83 4 0 3 10
22 22 43 27 48 9 31 -21 -19 l-23 -38 109 -1 c159 -2 467 2 471 6 4 4 -88 165
-95 165 -5 0 22 -48 69 -127 l20 -33 -90 0 c-67 0 -93 4 -102 15 -10 12 -10
18 1 31 12 14 14 14 26 -2 10 -14 15 -15 29 -4 15 13 14 15 -1 26 -24 17 -10
37 16 24 15 -9 21 -7 26 6 4 10 0 20 -10 26 -21 11 -22 48 -2 48 8 0 15 4 15
9 0 5 -9 7 -20 4 -11 -3 -20 -9 -20 -14 0 -5 -5 -9 -10 -9 -6 0 -21 -9 -33
-20 -30 -29 -63 -35 -82 -17 -8 9 -15 20 -15 26 0 6 -5 11 -11 11 -5 0 -2 -13
8 -30 20 -34 61 -41 87 -15 8 8 19 15 24 15 6 0 12 6 15 13 2 6 8 9 12 5 11
-10 -25 -67 -57 -91 -38 -29 -123 -34 -168 -10 -107 56 -107 208 0 264 40 22
110 25 128 7 10 -10 15 -10 20 -1 4 6 20 15 35 18 15 4 27 11 27 16 0 5 5 9
11 9 7 0 20 10 30 21 11 12 25 19 34 15 8 -3 15 -1 15 4 0 18 -45 10 -60 -10z
m-106 -375 c4 -11 -1 -15 -19 -15 -29 0 -34 16 -7 23 9 3 18 5 18 6 1 0 4 -6
8 -14z m-74 -5 c0 -5 -9 -10 -20 -10 -11 0 -20 5 -20 10 0 6 9 10 20 10 11 0
20 -4 20 -10z"/>
<path d="M586 403 c9 -16 26 -34 36 -41 22 -16 24 -62 3 -62 -8 0 -15 -4 -15
-9 0 -5 9 -7 20 -4 30 8 25 52 -10 93 -16 19 -30 38 -30 43 0 4 -5 7 -11 7 -7
0 -4 -11 7 -27z"/>
<path d="M700 331 c0 -28 5 -51 10 -51 6 0 10 9 10 19 0 13 8 21 23 23 16 2
22 10 22 28 0 21 -5 26 -32 28 l-33 3 0 -50z m55 19 c0 -8 -8 -16 -17 -18 -13
-2 -18 3 -18 18 0 15 5 20 18 18 9 -2 17 -10 17 -18z"/>
<path d="M803 368 c9 -7 18 -31 20 -53 l4 -40 1 47 c2 35 6 48 20 51 9 3 -1 5
-22 6 -34 1 -37 -1 -23 -11z"/>
<path d="M923 368 c9 -7 18 -31 20 -53 l4 -40 1 42 c1 28 8 45 20 52 14 8 9
10 -22 11 -34 0 -37 -2 -23 -12z"/>
<path d="M1060 369 c0 -5 5 -7 10 -4 6 3 10 8 10 11 0 2 -4 4 -10 4 -5 0 -10
-5 -10 -11z"/>
<path d="M1150 366 c0 -8 -10 -16 -22 -18 -18 -2 -23 -10 -23 -33 0 -27 3 -30
33 -31 32 -1 32 -1 32 48 0 26 -4 48 -10 48 -5 0 -10 -6 -10 -14z m-2 -49 c2
-10 -3 -17 -12 -17 -18 0 -29 16 -21 31 9 14 29 6 33 -14z"/>
<path d="M1000 315 c0 -19 5 -35 10 -35 6 0 10 11 10 25 0 14 5 25 10 25 6 0
10 5 10 10 0 6 -9 10 -20 10 -16 0 -20 -7 -20 -35z"/>
<path d="M1063 315 c0 -22 2 -30 4 -17 2 12 2 30 0 40 -3 9 -5 -1 -4 -23z"/>
<path d="M1194 338 c-5 -8 0 -9 14 -6 12 4 24 2 27 -2 3 -5 -5 -10 -17 -12
-36 -5 -28 -33 10 -35 33 -1 41 13 26 51 -7 18 -49 21 -60 4z m43 -34 c-3 -3
-12 -4 -19 -1 -8 3 -5 6 6 6 11 1 17 -2 13 -5z"/>
<path d="M1285 320 c9 -17 13 -40 10 -50 -13 -41 12 -18 32 30 20 48 17 74 -4
28 l-10 -23 -12 23 c-6 12 -16 22 -22 22 -5 0 -2 -14 6 -30z"/>
<path d="M1370 340 c0 -7 8 -9 20 -5 11 3 20 2 20 -4 0 -5 -10 -11 -22 -13
-37 -5 -28 -33 10 -35 31 -1 33 0 30 30 -2 27 -8 33 -30 35 -16 2 -28 -2 -28
-8z m37 -36 c-3 -3 -12 -4 -19 -1 -8 3 -5 6 6 6 11 1 17 -2 13 -5z"/>
<path d="M1450 315 c0 -41 17 -47 22 -7 4 33 22 32 26 -3 2 -14 7 -25 12 -25
5 0 10 11 12 25 2 14 8 26 13 26 6 0 11 -12 13 -26 4 -31 22 -33 22 -2 0 36
-12 44 -67 46 l-53 1 0 -35z"/>
<path d="M1595 340 c-5 -9 -1 -10 14 -5 12 4 21 2 21 -4 0 -6 -9 -11 -21 -11
-33 0 -20 -35 14 -36 26 -1 28 2 25 30 -2 23 -9 32 -25 34 -11 2 -24 -2 -28
-8z m32 -36 c-3 -3 -12 -4 -19 -1 -8 3 -5 6 6 6 11 1 17 -2 13 -5z"/>
<path d="M1677 343 c-12 -12 -7 -22 16 -29 l22 -8 -25 -6 c-21 -6 -23 -8 -7
-15 20 -9 47 0 47 16 0 6 -9 13 -20 16 -11 3 -20 10 -20 15 0 5 10 6 21 3 15
-5 19 -4 15 4 -8 12 -39 15 -49 4z"/>
<path d="M335 324 c-24 -25 -10 -29 16 -5 13 12 18 21 12 21 -7 0 -19 -7 -28
-16z"/>
<path d="M300 275 c0 -14 4 -25 9 -25 4 0 6 11 3 25 -2 14 -6 25 -8 25 -2 0
-4 -11 -4 -25z"/>
<path d="M566 259 c-11 -10 -15 -19 -8 -19 10 0 42 27 42 36 0 9 -16 2 -34
-17z"/>
<path d="M710 225 c-10 -12 -10 -18 0 -30 7 -8 19 -15 26 -15 8 0 14 -7 14
-15 0 -18 -21 -20 -39 -2 -11 10 -13 9 -9 -3 3 -9 17 -15 34 -15 39 0 46 31
10 45 -35 13 -34 34 2 26 26 -6 26 -6 8 9 -25 19 -30 19 -46 0z"/>
<path d="M790 230 c0 -5 5 -10 11 -10 5 0 7 5 4 10 -3 6 -8 10 -11 10 -2 0 -4
-4 -4 -10z"/>
<path d="M1410 191 c0 -28 5 -51 10 -51 6 0 10 5 10 12 0 9 3 9 12 0 19 -19
29 -14 16 7 -9 15 -9 23 1 35 16 19 1 22 -17 4 -9 -9 -12 -7 -12 9 0 12 -4 25
-10 28 -6 4 -10 -13 -10 -44z"/>
<path d="M790 175 c0 -19 5 -35 10 -35 6 0 10 16 10 35 0 19 -4 35 -10 35 -5
0 -10 -16 -10 -35z"/>
<path d="M830 173 c0 -18 5 -33 10 -33 6 0 10 11 10 25 0 16 6 25 15 25 9 0
15 -9 15 -25 0 -14 5 -25 10 -25 14 0 12 47 -2 57 -7 4 -23 8 -35 8 -19 1 -23
-4 -23 -32z"/>
<path d="M935 202 c-6 -4 -12 -19 -13 -34 -2 -25 2 -28 28 -28 26 0 30 3 30
29 0 17 -6 31 -16 35 -19 7 -17 7 -29 -2z m22 -18 c-3 -3 -12 -4 -19 -1 -8 3
-5 6 6 6 11 1 17 -2 13 -5z m3 -24 c0 -5 -4 -10 -10 -10 -5 0 -10 5 -10 10 0
6 5 10 10 10 6 0 10 -4 10 -10z"/>
<path d="M1006 202 c-10 -9 -6 -62 4 -62 6 0 10 9 10 20 0 10 7 23 16 28 14 8
14 10 -4 14 -12 3 -23 3 -26 0z"/>
<path d="M1060 159 c0 -27 5 -49 10 -49 6 0 10 7 10 15 0 9 9 15 24 15 13 0
26 7 30 15 6 16 -2 44 -13 46 -60 11 -61 11 -61 -42z m58 14 c-2 -10 -10 -18
-18 -18 -8 0 -16 8 -18 18 -2 12 3 17 18 17 15 0 20 -5 18 -17z"/>
<path d="M1157 203 c-4 -7 -5 -24 -1 -38 5 -19 12 -25 35 -25 27 0 29 3 28 38
-1 36 -2 36 -8 7 -3 -17 -13 -30 -21 -30 -9 0 -17 13 -20 30 -3 19 -8 26 -13
18z"/>
<path d="M1257 203 c-12 -12 -7 -33 7 -33 8 0 18 -5 22 -11 5 -9 -1 -10 -20
-5 -18 4 -25 3 -21 -4 9 -15 55 -12 55 3 0 8 -10 19 -22 25 l-23 11 23 0 c13
1 20 5 17 11 -7 11 -28 13 -38 3z"/>
<path d="M1330 184 c-13 -33 -6 -44 31 -44 24 0 29 4 29 23 0 48 -44 63 -60
21z m37 0 c-3 -3 -12 -4 -19 -1 -8 3 -5 6 6 6 11 1 17 -2 13 -5z m-2 -24 c-3
-5 -10 -10 -16 -10 -5 0 -9 5 -9 10 0 6 7 10 16 10 8 0 12 -4 9 -10z"/>
<path d="M1503 198 c-4 -7 -9 -23 -11 -35 -2 -20 2 -23 33 -23 38 0 44 14 25
51 -12 22 -35 25 -47 7z m34 -14 c-3 -3 -12 -4 -19 -1 -8 3 -5 6 6 6 11 1 17
-2 13 -5z m-2 -24 c-3 -5 -10 -10 -16 -10 -5 0 -9 5 -9 10 0 6 7 10 16 10 8 0
12 -4 9 -10z"/>
<path d="M126 153 c-6 -14 -5 -15 5 -6 7 7 10 15 7 18 -3 3 -9 -2 -12 -12z"/>
</g>
</svg>
