<?xml version="1.0" standalone="no"?>
<!DOCTYPE svg PUBLIC "-//W3C//DTD SVG 20010904//EN"
 "http://www.w3.org/TR/2001/REC-SVG-20010904/DTD/svg10.dtd">
<svg version="1.0" xmlns="http://www.w3.org/2000/svg"
 width="2007.000000pt" height="1734.000000pt" viewBox="0 0 2007.000000 1734.000000"
 preserveAspectRatio="xMidYMid meet">

<g transform="translate(0.000000,1734.000000) scale(0.100000,-0.100000)"
fill="#000000" stroke="none">
<path d="M9744 17177 c-205 -343 -1787 -3061 -1791 -3076 -3 -12 29 -34 124
-86 70 -38 135 -71 143 -73 10 -2 56 68 142 215 69 120 178 306 240 413 252
429 793 1354 1077 1840 79 135 147 249 151 253 4 5 25 -22 47 -60 22 -37 158
-270 303 -518 145 -247 332 -567 415 -710 84 -143 316 -539 515 -880 403 -688
525 -897 656 -1123 69 -119 93 -152 106 -148 10 2 74 39 143 82 l125 77 -17
26 c-17 26 -148 249 -196 332 -13 24 -63 109 -109 189 -47 80 -111 190 -143
245 -32 55 -113 195 -180 310 -68 116 -132 226 -143 245 -11 19 -64 112 -119
205 -87 148 -133 227 -288 495 -18 30 -70 120 -117 200 -47 80 -110 188 -140
240 -49 84 -173 298 -378 650 -236 404 -392 675 -425 738 -21 39 -41 72 -44
72 -3 -1 -47 -69 -97 -153z"/>
<path d="M15836 14165 l7 -385 -497 0 -496 0 5 -52 c8 -77 23 -552 18 -558 -3
-3 -216 -7 -474 -8 l-469 -4 0 -345 0 -346 -512 8 -511 7 6 -191 7 -191 -312
0 c-172 0 -375 -5 -451 -12 l-140 -11 8 -184 7 -185 -29 15 c-59 31 -353 146
-475 187 -71 23 -128 46 -128 52 0 6 60 103 133 215 72 112 156 240 185 286
29 45 110 170 181 277 205 312 231 354 223 362 -7 6 -290 83 -617 168 -88 22
-200 52 -250 66 -156 43 -549 143 -551 141 -1 -1 -19 -301 -40 -667 -20 -366
-38 -666 -40 -668 -1 -2 -51 4 -111 13 -299 45 -693 71 -935 62 l-157 -6 -6
32 c-3 18 -9 54 -14 81 -8 44 21 416 105 1354 6 66 5 72 -12 72 -18 0 -381
-25 -1034 -70 -157 -11 -306 -20 -330 -20 -25 0 -51 -4 -59 -9 -11 -7 1 -123
64 -657 113 -951 112 -944 95 -954 -8 -5 -46 -17 -85 -26 -134 -32 -450 -139
-676 -229 -22 -8 -28 5 -324 798 -142 378 -263 687 -268 687 -6 0 -51 -26
-101 -59 -50 -32 -237 -151 -416 -266 -179 -114 -341 -217 -360 -230 -19 -12
-125 -80 -235 -150 -110 -70 -202 -129 -204 -131 -5 -4 1001 -1098 1015 -1104
8 -3 -32 -36 -88 -75 -295 -203 -507 -376 -741 -605 l-164 -160 -105 158 c-95
141 -435 644 -657 973 l-84 124 -526 -528 c-289 -291 -527 -531 -528 -535 -2
-4 293 -197 655 -429 361 -232 666 -428 676 -436 18 -13 17 -17 -25 -78 -134
-197 -354 -614 -449 -851 l-43 -107 -86 74 c-162 139 -337 291 -675 585 -186
162 -343 296 -349 298 -7 1 -37 -42 -68 -95 -190 -334 -686 -1194 -704 -1223
l-22 -35 491 -148 c626 -187 1093 -325 1130 -332 27 -6 28 -8 22 -43 -40 -225
-60 -411 -82 -786 l-6 -98 -262 6 c-143 3 -489 9 -769 12 -405 5 -507 4 -507
-6 0 -7 29 -304 65 -661 36 -356 65 -649 65 -652 0 -2 30 7 68 19 97 33 1388
414 1400 414 6 0 15 -26 21 -57 49 -263 118 -528 196 -756 l44 -128 -34 -15
c-72 -30 -462 -174 -950 -351 -280 -102 -511 -186 -513 -188 -4 -3 100 -219
387 -810 67 -137 149 -307 183 -376 l60 -127 172 145 c94 80 250 211 346 292
96 80 215 180 265 222 49 42 173 147 275 233 102 85 188 156 192 156 4 0 23
-28 44 -63 183 -304 441 -639 694 -900 73 -76 131 -139 129 -141 -2 -2 -175
-81 -384 -176 -209 -95 -461 -209 -560 -255 -99 -45 -282 -129 -408 -185
l-227 -104 43 -45 c125 -134 213 -228 313 -336 546 -593 739 -800 743 -802 3
-1 32 30 63 70 31 40 149 187 263 327 503 623 722 894 749 931 16 21 35 39 41
39 6 0 47 -25 91 -56 206 -144 558 -348 788 -454 l115 -54 -56 -60 c-31 -34
-136 -146 -232 -250 -97 -105 -210 -226 -251 -271 -144 -157 -445 -480 -501
-540 l-58 -59 126 -71 126 -70 -2953 -3 c-1624 -1 -2955 0 -2958 2 -2 3 27 58
66 123 38 65 165 282 282 483 117 201 227 390 245 420 29 48 305 521 723 1240
69 118 186 319 260 445 74 127 160 273 190 325 77 134 533 914 570 977 l31 52
-145 85 -144 85 -41 -72 c-23 -40 -121 -207 -217 -372 -97 -165 -206 -353
-244 -417 -138 -239 -532 -914 -876 -1503 -97 -165 -206 -353 -244 -418 -78
-134 -147 -253 -345 -592 -77 -132 -188 -323 -248 -425 -189 -325 -246 -421
-346 -591 -55 -92 -99 -169 -99 -173 0 -3 1597 -6 3550 -6 l3549 0 258 -145
c142 -79 260 -141 264 -137 4 4 21 69 39 145 l32 137 609 0 c462 0 609 -3 609
-12 0 -6 -9 -46 -19 -87 -44 -168 -91 -374 -88 -378 2 -2 389 -6 861 -10 648
-5 856 -3 856 5 0 7 -4 12 -10 12 -5 0 -10 22 -10 50 0 27 -18 131 -40 231
-22 100 -40 184 -40 186 0 2 325 3 723 3 l723 0 47 -144 48 -144 315 144 315
144 3525 0 c1938 0 3524 3 3524 6 0 3 -58 103 -129 222 -70 120 -140 237 -153
262 -14 25 -53 91 -87 148 -33 56 -61 105 -61 108 0 2 -8 17 -19 32 -10 15
-47 77 -81 137 -35 61 -82 142 -105 180 -23 39 -53 90 -67 115 -14 25 -49 86
-78 135 -45 76 -141 241 -210 360 -9 17 -72 125 -140 240 -68 116 -148 253
-178 305 -30 52 -141 244 -247 425 -106 182 -202 346 -212 365 -11 19 -66 114
-123 210 -56 96 -126 216 -155 265 -28 50 -84 144 -122 210 -39 66 -128 219
-198 340 -70 121 -165 283 -210 360 -45 77 -125 214 -177 305 -52 91 -113 194
-135 230 -22 36 -53 90 -70 120 -17 30 -74 129 -127 219 -53 90 -96 165 -96
167 0 3 -11 23 -26 45 -14 22 -33 55 -43 72 -10 18 -50 86 -89 152 l-70 120
39 3 c39 3 40 4 34 35 -8 48 -26 690 -19 696 3 3 217 7 476 9 l470 4 -6 31
c-3 18 -8 140 -12 271 l-7 239 456 -7 457 -7 0 359 0 359 83 6 c45 4 268 7
496 7 l413 0 -7 302 -8 301 483 -7 483 -7 -6 692 c-4 381 -7 836 -7 1012 l0
320 -270 -7 -270 -8 0 340 c0 186 -3 374 -7 417 l-6 77 -402 -7 -402 -7 -6 83
c-4 46 -7 204 -7 350 0 146 -3 300 -6 342 l-7 77 -111 0 c-61 0 -183 3 -270 7
l-159 6 7 385 c4 211 10 397 13 413 l6 29 -338 0 -338 0 8 490 c6 445 6 490
-9 490 -9 0 -217 13 -463 30 -247 16 -590 39 -763 50 -173 11 -341 22 -373 25
l-58 5 7 -385z m799 45 c259 -17 494 -33 524 -36 l54 -6 -7 -499 -6 -499 331
0 332 0 -7 -408 -7 -409 267 -6 c148 -4 271 -10 275 -15 4 -4 11 -200 15 -435
l7 -428 402 7 402 7 6 -33 c4 -18 7 -204 7 -413 l0 -380 270 8 270 7 0 -716 0
-716 -477 0 -478 0 3 -298 3 -299 -77 -6 c-42 -4 -263 -7 -491 -7 l-413 0 0
-355 0 -355 -456 0 -456 0 7 -268 7 -269 -68 -6 c-38 -4 -253 -7 -477 -7
l-409 0 6 -27 c3 -16 8 -116 11 -223 3 -107 8 -259 11 -337 l6 -143 -517 0
-517 0 7 -300 8 -300 -462 0 -461 0 0 -287 0 -286 -521 7 -521 7 5 -23 c3 -13
8 -111 12 -218 3 -107 8 -225 11 -262 l5 -68 -457 0 -457 0 8 -250 7 -250
-565 0 -564 0 -7 31 c-3 17 -6 195 -6 395 l0 364 -381 0 -382 0 7 398 7 399
-78 12 c-43 7 -84 15 -90 17 -9 2 -13 26 -13 74 l0 70 -159 0 c-136 0 -160 2
-165 16 -3 9 -6 111 -6 228 l0 213 -82 7 c-45 4 -83 8 -85 9 -1 2 -7 43 -14
93 l-12 90 -96 -18 c-52 -10 -100 -17 -107 -14 -6 2 -40 43 -75 90 -63 85 -64
86 -108 86 l-44 0 5 85 4 85 -88 0 -88 0 0 228 c0 125 -3 264 -7 310 l-6 82
-127 0 c-70 0 -175 3 -235 7 l-108 6 7 396 c3 218 7 493 8 612 l1 216 66 7
c36 3 245 6 464 6 l397 0 0 370 0 370 474 0 473 0 6 88 c4 48 7 183 8 300 l0
212 445 0 444 0 0 405 0 405 532 0 531 0 -6 153 c-4 83 -10 230 -14 325 l-6
172 443 0 443 0 -7 192 -6 191 510 -7 510 -7 0 344 0 344 38 7 c20 3 234 6
475 6 l438 0 -7 258 c-5 141 -8 277 -9 302 l0 45 402 3 c351 2 402 4 397 17
-5 13 8 15 78 15 l85 0 7 115 c4 64 4 226 0 360 l-7 245 24 0 c13 0 236 -14
494 -30z m-6445 -2344 c594 -68 1147 -209 1585 -406 12 -5 -134 -9 -377 -9
l-398 -1 0 -405 0 -405 -440 0 -440 0 0 -284 c0 -156 -3 -291 -6 -300 -5 -14
-58 -16 -485 -16 l-479 0 0 -368 0 -369 -107 -6 c-58 -4 -264 -7 -458 -7
l-352 0 -7 -587 c-3 -324 -9 -728 -12 -899 l-7 -311 69 -6 c38 -4 144 -7 235
-7 l166 0 7 -37 c3 -21 6 -163 6 -315 l0 -278 80 0 80 0 0 -85 0 -85 123 0
122 0 20 -29 c11 -16 44 -61 74 -100 54 -71 54 -71 93 -64 48 7 58 -4 58 -63
l0 -41 65 -6 c36 -4 70 -9 75 -12 6 -4 10 -104 10 -246 l0 -239 160 0 160 0 0
-49 0 -49 73 -12 c39 -6 80 -14 91 -17 18 -5 18 -19 12 -392 -4 -212 -10 -401
-13 -418 l-5 -33 386 0 386 0 0 -318 c0 -176 3 -353 6 -395 l7 -77 860 0 860
0 -7 251 -7 252 457 -8 457 -7 -6 44 c-4 23 -9 129 -12 233 -3 105 -8 217 -11
249 l-5 59 520 -7 521 -8 0 286 0 286 159 0 159 0 -20 -72 c-288 -1035 -920
-1950 -1813 -2624 -233 -175 -612 -407 -848 -517 -461 -216 -852 -347 -1307
-437 -532 -105 -1128 -128 -1685 -64 -1180 136 -2280 663 -3110 1489 -330 329
-589 671 -837 1105 -67 118 -184 362 -251 525 -379 924 -450 1995 -197 2970
324 1250 1130 2314 2280 3011 166 100 460 250 640 326 552 232 1088 362 1695
413 208 18 756 12 945 -9z m6010 -6107 c190 -325 358 -615 373 -643 16 -28 41
-71 57 -96 15 -25 46 -76 67 -115 22 -38 72 -124 110 -190 39 -66 102 -174
140 -240 39 -66 196 -336 350 -600 154 -264 298 -511 320 -550 22 -38 64 -110
93 -160 29 -49 92 -157 140 -240 48 -82 119 -204 157 -270 190 -326 381 -653
703 -1205 194 -333 355 -611 357 -618 4 -10 -573 -12 -2878 -10 l-2883 3 -303
440 c-167 242 -326 474 -354 515 -172 251 -230 335 -286 415 -35 50 -63 95
-63 101 0 6 24 24 53 39 193 104 523 312 655 413 l46 35 41 -45 c22 -24 137
-150 256 -279 118 -129 239 -261 269 -294 29 -33 104 -114 165 -180 61 -66
153 -166 204 -223 51 -56 97 -102 101 -102 8 0 186 203 807 918 73 84 133 156
133 160 0 4 -15 16 -32 27 -18 10 -109 69 -203 130 -183 121 -810 530 -887
580 -26 16 -48 34 -48 39 0 4 26 38 58 75 198 228 415 533 567 798 l42 73 119
-108 c66 -59 337 -302 602 -539 264 -238 485 -433 490 -433 5 0 56 80 114 178
58 97 234 394 391 659 158 265 287 486 287 491 0 6 -30 21 -67 35 -506 191
-1442 544 -1524 576 l-26 10 42 141 c24 78 51 173 60 211 l17 69 130 0 131 0
-8 300 -7 300 288 0 289 0 345 -591z m-4621 -4384 c99 -297 181 -543 181 -548
0 -4 -316 -6 -702 -5 l-702 3 -22 100 c-12 55 -53 247 -93 426 -39 180 -71
329 -71 332 0 2 35 7 78 11 288 25 703 106 1022 200 63 18 118 31 121 27 3 -3
88 -249 188 -546z m-3434 491 c304 -84 572 -132 1008 -181 31 -4 57 -9 57 -13
0 -4 -46 -197 -102 -429 l-103 -423 -612 0 c-337 0 -613 4 -613 8 0 7 33 154
92 407 11 50 24 108 28 130 5 22 34 148 64 281 31 132 56 244 56 248 0 4 8 5
18 2 9 -3 58 -16 107 -30z"/>
</g>
</svg>
